2014022_C5_02_grf
version=1
nRows=12
nColumns=19
inDegrees=no
endheader
time	ground_force_1_vx	ground_force_1_vy	ground_force_1_vz	ground_force_1_px	ground_force_1_py	ground_force_1_pz	ground_force_1_mx	ground_force_1_my	ground_force_1_mz	ground_force_2_vx	ground_force_2_vy	ground_force_2_vz	ground_force_2_px	ground_force_2_py	ground_force_2_pz	ground_force_2_mx	ground_force_2_my	ground_force_2_mz
      0.72500000	      0.00000000	      0.00000000	      0.00000000	      0.00000000	      0.00000000	      0.00000000	      0.00000000	      0.00000000	      0.00000000	     -5.58217755	    388.93312216	    -11.28415950	      0.78567400	     -0.00200000	     -0.22029909	      0.00000000	      1.25990338	      0.00000000
      0.72600000	      0.00000000	      0.00000000	      0.00000000	      0.00000000	      0.00000000	      0.00000000	      0.00000000	      0.00000000	      0.00000000	     -5.30417822	    386.79760695	    -11.39715537	      0.78655993	     -0.00200000	     -0.22020338	      0.00000000	      1.26435515	      0.00000000
      0.72700000	      0.00000000	      0.00000000	      0.00000000	      0.00000000	      0.00000000	      0.00000000	      0.00000000	      0.00000000	      0.00000000	     -5.02891792	    384.70931351	    -11.51610743	      0.78745400	     -0.00200000	     -0.22010696	      0.00000000	      1.26859502	      0.00000000
      0.72800000	      0.00000000	      0.00000000	      0.00000000	      0.00000000	      0.00000000	      0.00000000	      0.00000000	      0.00000000	      0.00000000	     -4.75556497	    382.66029954	    -11.63953096	      0.78835428	     -0.00200000	     -0.22001011	      0.00000000	      1.27266677	      0.00000000
      0.72900000	      0.00000000	      0.00000000	      0.00000000	      0.00000000	      0.00000000	      0.00000000	      0.00000000	      0.00000000	      0.00000000	     -4.48424835	    380.66230714	    -11.76818535	      0.78926191	     -0.00200000	     -0.21991291	      0.00000000	      1.27652968	      0.00000000
      0.73000000	      0.00000000	      0.00000000	      0.00000000	      0.00000000	      0.00000000	      0.00000000	      0.00000000	      0.00000000	      0.00000000	     -4.21428541	    378.70660424	    -11.90074459	      0.79017510	     -0.00200000	     -0.21981557	      0.00000000	      1.28022599	      0.00000000
      0.73100000	      0.00000000	      0.00000000	      0.00000000	      0.00000000	      0.00000000	      0.00000000	      0.00000000	      0.00000000	      0.00000000	     -3.94567882	    376.80564821	    -12.03784291	      0.79109476	     -0.00200000	     -0.21971822	      0.00000000	      1.28371372	      0.00000000
      0.73200000	      0.00000000	      0.00000000	      0.00000000	      0.00000000	      0.00000000	      0.00000000	      0.00000000	      0.00000000	      0.00000000	     -3.67789762	    374.94996190	    -12.17830069	      0.79201926	     -0.00200000	     -0.21962103	      0.00000000	      1.28703385	      0.00000000
      0.73300000	      0.00000000	      0.00000000	      0.00000000	      0.00000000	      0.00000000	      0.00000000	      0.00000000	      0.00000000	      0.00000000	     -3.41083214	    373.15280735	    -12.32261807	      0.79294933	     -0.00200000	     -0.21952421	      0.00000000	      1.29014177	      0.00000000
      0.73400000	      0.00000000	      0.00000000	      0.00000000	      0.00000000	      0.00000000	      0.00000000	      0.00000000	      0.00000000	      0.00000000	     -3.14409356	    371.40399218	    -12.46975623	      0.79388349	     -0.00200000	     -0.21942786	      0.00000000	      1.29307630	      0.00000000
      0.73500000	      0.00000000	      0.00000000	      0.00000000	      0.00000000	      0.00000000	      0.00000000	      0.00000000	      0.00000000	      0.00000000	     -2.87747488	    369.71741915	    -12.62009293	      0.79482228	     -0.00200000	     -0.21933227	      0.00000000	      1.29578979	      0.00000000
      0.73600000	      0.00000000	      0.00000000	      0.00000000	      0.00000000	      0.00000000	      0.00000000	      0.00000000	      0.00000000	      0.00000000	     -2.61073955	    368.08210611	    -12.77273521	      0.79576438	     -0.00200000	     -0.21923747	      0.00000000	      1.29832454	      0.00000000
